<svg id="visual" viewBox="0 0 5120 1440" width="5120" height="1440" xmlns="http://www.w3.org/2000/svg" xmlns:xlink="http://www.w3.org/1999/xlink" version="1.1"><rect x="0" y="0" width="5120" height="1440" fill="#14161B"></rect><defs><linearGradient id="grad1_0" x1="71.9%" y1="0%" x2="100%" y2="100%"><stop offset="-21.111111111111104%" stop-color="#14161b" stop-opacity="1"></stop><stop offset="121.1111111111111%" stop-color="#14161b" stop-opacity="1"></stop></linearGradient></defs><defs><linearGradient id="grad2_0" x1="0%" y1="0%" x2="28.1%" y2="100%"><stop offset="-21.111111111111104%" stop-color="#14161b" stop-opacity="1"></stop><stop offset="121.1111111111111%" stop-color="#14161b" stop-opacity="1"></stop></linearGradient></defs><g transform="translate(5120, 0)"><path d="M0 1296C-136.2 1285.5 -272.5 1274.9 -400.5 1232.6C-528.5 1190.2 -648.3 1116.1 -737.1 1014.5C-825.9 912.9 -883.6 784 -915.8 665.4C-948 546.8 -954.7 438.6 -1013.8 329.4C-1072.9 220.2 -1184.5 110.1 -1296 0L0 0Z" fill="#1B1D24"></path></g><g transform="translate(0, 1440)"><path d="M0 -1296C146.5 -1299.6 292.9 -1303.2 400.5 -1232.6C508.1 -1162 576.8 -1017.2 671.8 -924.7C766.9 -832.2 888.4 -792 978.1 -710.6C1067.8 -629.2 1125.9 -506.6 1173.6 -381.3C1221.3 -256 1258.7 -128 1296 0L0 0Z" fill="#1B1D24"></path></g></svg>