<svg id="visual" viewBox="0 0 5120 1440" width="5120" height="1440" xmlns="http://www.w3.org/2000/svg" xmlns:xlink="http://www.w3.org/1999/xlink" version="1.1"><rect x="0" y="0" width="5120" height="1440" fill="#14161B"></rect><defs><linearGradient id="grad1_0" x1="71.9%" y1="0%" x2="100%" y2="100%"><stop offset="-21.111111111111104%" stop-color="#1b1d24" stop-opacity="1"></stop><stop offset="121.1111111111111%" stop-color="#1b1d24" stop-opacity="1"></stop></linearGradient></defs><defs><linearGradient id="grad1_1" x1="71.9%" y1="0%" x2="100%" y2="100%"><stop offset="-21.111111111111104%" stop-color="#1b1d24" stop-opacity="1"></stop><stop offset="121.1111111111111%" stop-color="#171a1f" stop-opacity="1"></stop></linearGradient></defs><defs><linearGradient id="grad1_2" x1="71.9%" y1="0%" x2="100%" y2="100%"><stop offset="-21.111111111111104%" stop-color="#14161b" stop-opacity="1"></stop><stop offset="121.1111111111111%" stop-color="#171a1f" stop-opacity="1"></stop></linearGradient></defs><defs><linearGradient id="grad2_0" x1="0%" y1="0%" x2="28.1%" y2="100%"><stop offset="-21.111111111111104%" stop-color="#1b1d24" stop-opacity="1"></stop><stop offset="121.1111111111111%" stop-color="#1b1d24" stop-opacity="1"></stop></linearGradient></defs><defs><linearGradient id="grad2_1" x1="0%" y1="0%" x2="28.1%" y2="100%"><stop offset="-21.111111111111104%" stop-color="#171a1f" stop-opacity="1"></stop><stop offset="121.1111111111111%" stop-color="#1b1d24" stop-opacity="1"></stop></linearGradient></defs><defs><linearGradient id="grad2_2" x1="0%" y1="0%" x2="28.1%" y2="100%"><stop offset="-21.111111111111104%" stop-color="#171a1f" stop-opacity="1"></stop><stop offset="121.1111111111111%" stop-color="#14161b" stop-opacity="1"></stop></linearGradient></defs><g transform="translate(5120, 0)"><path d="M0 1440C-160.7 1440.6 -321.4 1441.3 -445 1369.5C-568.5 1297.8 -655 1153.6 -764.7 1052.5C-874.5 951.4 -1007.6 893.3 -1090.6 792.3C-1173.6 691.3 -1206.5 547.4 -1256.3 408.2C-1306.2 269 -1373.1 134.5 -1440 0L0 0Z" fill="#16181d"></path><path d="M0 960C-107.1 960.4 -214.3 960.8 -296.7 913C-379 865.2 -436.6 769.1 -509.8 701.7C-583 634.3 -671.7 595.6 -727 528.2C-782.4 460.9 -804.3 364.9 -837.6 272.1C-870.8 179.3 -915.4 89.7 -960 0L0 0Z" fill="#191b22"></path><path d="M0 480C-53.6 480.2 -107.1 480.4 -148.3 456.5C-189.5 432.6 -218.3 384.5 -254.9 350.8C-291.5 317.1 -335.9 297.8 -363.5 264.1C-391.2 230.4 -402.2 182.5 -418.8 136.1C-435.4 89.7 -457.7 44.8 -480 0L0 0Z" fill="#1b1d24"></path></g><g transform="translate(0, 1440)"><path d="M0 -1440C134.8 -1368.6 269.7 -1297.3 401.1 -1234.5C532.5 -1171.7 660.6 -1117.5 747.1 -1028.3C833.6 -939 878.6 -814.8 991 -720C1103.5 -625.3 1283.5 -560.1 1369.5 -445C1455.6 -329.9 1447.8 -164.9 1440 0L0 0Z" fill="#16181d"></path><path d="M0 -960C89.9 -912.4 179.8 -864.8 267.4 -823C355 -781.1 440.4 -745 498.1 -685.5C555.7 -626 585.7 -543.2 660.7 -480C735.7 -416.9 855.6 -373.4 913 -296.7C970.4 -219.9 965.2 -110 960 0L0 0Z" fill="#191b22"></path><path d="M0 -480C44.9 -456.2 89.9 -432.4 133.7 -411.5C177.5 -390.6 220.2 -372.5 249 -342.8C277.9 -313 292.9 -271.6 330.3 -240C367.8 -208.4 427.8 -186.7 456.5 -148.3C485.2 -110 482.6 -55 480 0L0 0Z" fill="#1b1d24"></path></g></svg>