<svg id="visual" viewBox="0 0 1920 1080" width="1920" height="1080" xmlns="http://www.w3.org/2000/svg" xmlns:xlink="http://www.w3.org/1999/xlink" version="1.1"><rect x="0" y="0" width="1920" height="1080" fill="#14161B"></rect><defs><linearGradient id="grad1_0" x1="43.8%" y1="0%" x2="100%" y2="100%"><stop offset="14.444444444444446%" stop-color="#1b1d24" stop-opacity="1"></stop><stop offset="85.55555555555554%" stop-color="#1b1d24" stop-opacity="1"></stop></linearGradient></defs><defs><linearGradient id="grad1_1" x1="43.8%" y1="0%" x2="100%" y2="100%"><stop offset="14.444444444444446%" stop-color="#1b1d24" stop-opacity="1"></stop><stop offset="85.55555555555554%" stop-color="#171a1f" stop-opacity="1"></stop></linearGradient></defs><defs><linearGradient id="grad1_2" x1="43.8%" y1="0%" x2="100%" y2="100%"><stop offset="14.444444444444446%" stop-color="#14161b" stop-opacity="1"></stop><stop offset="85.55555555555554%" stop-color="#171a1f" stop-opacity="1"></stop></linearGradient></defs><defs><linearGradient id="grad2_0" x1="0%" y1="0%" x2="56.3%" y2="100%"><stop offset="14.444444444444446%" stop-color="#1b1d24" stop-opacity="1"></stop><stop offset="85.55555555555554%" stop-color="#1b1d24" stop-opacity="1"></stop></linearGradient></defs><defs><linearGradient id="grad2_1" x1="0%" y1="0%" x2="56.3%" y2="100%"><stop offset="14.444444444444446%" stop-color="#171a1f" stop-opacity="1"></stop><stop offset="85.55555555555554%" stop-color="#1b1d24" stop-opacity="1"></stop></linearGradient></defs><defs><linearGradient id="grad2_2" x1="0%" y1="0%" x2="56.3%" y2="100%"><stop offset="14.444444444444446%" stop-color="#171a1f" stop-opacity="1"></stop><stop offset="85.55555555555554%" stop-color="#14161b" stop-opacity="1"></stop></linearGradient></defs><g transform="translate(1920, 0)"><path d="M0 756C-81.7 754.2 -163.4 752.4 -233.6 719C-303.8 685.6 -362.6 620.6 -405 557.4C-447.3 494.2 -473.3 432.9 -525.1 381.5C-576.8 330 -654.3 288.4 -697.1 226.5C-739.9 164.6 -748 82.3 -756 0L0 0Z" fill="#16181d"></path><path d="M0 504C-54.5 502.8 -108.9 501.6 -155.7 479.3C-202.6 457.1 -241.7 413.7 -270 371.6C-298.2 329.5 -315.5 288.6 -350 254.3C-384.5 220 -436.2 192.3 -464.7 151C-493.3 109.7 -498.6 54.9 -504 0L0 0Z" fill="#191b22"></path><path d="M0 252C-27.2 251.4 -54.5 250.8 -77.9 239.7C-101.3 228.5 -120.9 206.9 -135 185.8C-149.1 164.7 -157.8 144.3 -175 127.2C-192.3 110 -218.1 96.1 -232.4 75.5C-246.6 54.9 -249.3 27.4 -252 0L0 0Z" fill="#1b1d24"></path></g><g transform="translate(0, 1080)"><path d="M0 -756C65.9 -715.3 131.8 -674.5 214.8 -661C297.7 -647.4 397.7 -661 444.4 -611.6C491 -562.2 484.3 -449.8 521.8 -379.1C559.4 -308.5 641.2 -279.6 687.6 -223.4C734 -167.2 745 -83.6 756 0L0 0Z" fill="#16181d"></path><path d="M0 -504C43.9 -476.8 87.9 -449.7 143.2 -440.7C198.5 -431.6 265.2 -440.7 296.2 -407.7C327.3 -374.8 322.8 -299.8 347.9 -252.7C372.9 -205.7 427.5 -186.4 458.4 -148.9C489.4 -111.5 496.7 -55.7 504 0L0 0Z" fill="#191b22"></path><path d="M0 -252C22 -238.4 43.9 -224.8 71.6 -220.3C99.2 -215.8 132.6 -220.3 148.1 -203.9C163.7 -187.4 161.4 -149.9 173.9 -126.4C186.5 -102.8 213.7 -93.2 229.2 -74.5C244.7 -55.7 248.3 -27.9 252 0L0 0Z" fill="#1b1d24"></path></g></svg>