<svg id="visual" viewBox="0 0 5120 1440" width="5120" height="1440" xmlns="http://www.w3.org/2000/svg" xmlns:xlink="http://www.w3.org/1999/xlink" version="1.1"><rect x="0" y="0" width="5120" height="1440" fill="#14161B"></rect><g transform="translate(2585.221060571145 737.4381251633093)"><path d="M323 -461.3C398 -390.1 423.9 -268.1 463.4 -149.8C502.8 -31.5 555.7 83.1 527.6 171.9C499.4 260.8 390.2 323.7 288.8 367.9C187.3 412.1 93.7 437.6 -22.9 469.1C-139.5 500.7 -279 538.3 -350.3 484.4C-421.7 430.4 -424.8 284.7 -469.2 151.6C-513.6 18.5 -599.2 -102 -584.2 -202.7C-569.2 -303.4 -453.6 -384.3 -339.4 -442.7C-225.3 -501.1 -112.7 -537.1 5.7 -544.9C124 -552.7 248 -532.4 323 -461.3" fill="#22252C"></path></g></svg>