<svg id="visual" viewBox="0 0 1920 1080" width="1920" height="1080" xmlns="http://www.w3.org/2000/svg" xmlns:xlink="http://www.w3.org/1999/xlink" version="1.1"><rect x="0" y="0" width="1920" height="1080" fill="#14161B"></rect><g fill="#22252C"><circle r="129" cx="1199" cy="135"></circle><circle r="41" cx="562" cy="720"></circle><circle r="69" cx="1114" cy="988"></circle><circle r="119" cx="1650" cy="776"></circle><circle r="64" cx="838" cy="792"></circle><circle r="41" cx="531" cy="237"></circle><circle r="123" cx="103" cy="963"></circle><circle r="99" cx="884" cy="474"></circle><circle r="59" cx="258" cy="530"></circle><circle r="59" cx="1818" cy="378"></circle><circle r="44" cx="701" cy="1015"></circle><circle r="108" cx="1795" cy="8"></circle><circle r="42" cx="1520" cy="172"></circle><circle r="73" cx="1153" cy="411"></circle><circle r="65" cx="1454" cy="958"></circle><circle r="66" cx="111" cy="126"></circle><circle r="64" cx="1834" cy="1013"></circle><circle r="126" cx="1387" cy="528"></circle><circle r="66" cx="421" cy="946"></circle></g></svg>