<svg id="visual" viewBox="0 0 5120 1440" width="5120" height="1440" xmlns="http://www.w3.org/2000/svg" xmlns:xlink="http://www.w3.org/1999/xlink" version="1.1"><rect x="0" y="0" width="5120" height="1440" fill="#14161B"></rect><g fill="#22252C"><circle r="243" cx="4644" cy="1049"></circle><circle r="76" cx="2050" cy="475"></circle><circle r="225" cx="3723" cy="1083"></circle><circle r="88" cx="580" cy="907"></circle><circle r="79" cx="781" cy="283"></circle><circle r="82" cx="2994" cy="740"></circle><circle r="235" cx="4519" cy="270"></circle><circle r="212" cx="4971" cy="667"></circle><circle r="210" cx="2365" cy="848"></circle><circle r="95" cx="260" cy="1277"></circle><circle r="111" cx="3888" cy="66"></circle><circle r="238" cx="1196" cy="1208"></circle><circle r="204" cx="1394" cy="423"></circle><circle r="196" cx="2666" cy="1423"></circle><circle r="92" cx="3174" cy="67"></circle><circle r="216" cx="4951" cy="18"></circle><circle r="183" cx="1780" cy="1391"></circle><circle r="174" cx="134" cy="230"></circle><circle r="157" cx="3208" cy="1361"></circle></g></svg>