<svg id="visual" viewBox="0 0 1920 1080" width="1920" height="1080" xmlns="http://www.w3.org/2000/svg" xmlns:xlink="http://www.w3.org/1999/xlink" version="1.1"><rect x="0" y="0" width="1920" height="1080" fill="#14161B"></rect><path d="M0 85L40 89C80 93 160 101 240 102.7C320 104.3 400 99.7 480 99.2C560 98.7 640 102.3 720 102.5C800 102.7 880 99.3 960 104C1040 108.7 1120 121.3 1200 113.3C1280 105.3 1360 76.7 1440 74.2C1520 71.7 1600 95.3 1680 115.7C1760 136 1840 153 1880 161.5L1920 170L1920 1081L1880 1081C1840 1081 1760 1081 1680 1081C1600 1081 1520 1081 1440 1081C1360 1081 1280 1081 1200 1081C1120 1081 1040 1081 960 1081C880 1081 800 1081 720 1081C640 1081 560 1081 480 1081C400 1081 320 1081 240 1081C160 1081 80 1081 40 1081L0 1081Z" fill="#1b1d24"></path><path d="M0 208L40 199.2C80 190.3 160 172.7 240 183.5C320 194.3 400 233.7 480 244.8C560 256 640 239 720 220.5C800 202 880 182 960 175.2C1040 168.3 1120 174.7 1200 183.3C1280 192 1360 203 1440 212C1520 221 1600 228 1680 231C1760 234 1840 233 1880 232.5L1920 232L1920 1081L1880 1081C1840 1081 1760 1081 1680 1081C1600 1081 1520 1081 1440 1081C1360 1081 1280 1081 1200 1081C1120 1081 1040 1081 960 1081C880 1081 800 1081 720 1081C640 1081 560 1081 480 1081C400 1081 320 1081 240 1081C160 1081 80 1081 40 1081L0 1081Z" fill="#1d1f26"></path><path d="M0 294L40 299C80 304 160 314 240 328.2C320 342.3 400 360.7 480 356.8C560 353 640 327 720 310.5C800 294 880 287 960 297.7C1040 308.3 1120 336.7 1200 335.2C1280 333.7 1360 302.3 1440 291.3C1520 280.3 1600 289.7 1680 300.2C1760 310.7 1840 322.3 1880 328.2L1920 334L1920 1081L1880 1081C1840 1081 1760 1081 1680 1081C1600 1081 1520 1081 1440 1081C1360 1081 1280 1081 1200 1081C1120 1081 1040 1081 960 1081C880 1081 800 1081 720 1081C640 1081 560 1081 480 1081C400 1081 320 1081 240 1081C160 1081 80 1081 40 1081L0 1081Z" fill="#1f2129"></path><path d="M0 383L40 394.2C80 405.3 160 427.7 240 435.7C320 443.7 400 437.3 480 425.2C560 413 640 395 720 399.3C800 403.7 880 430.3 960 440.2C1040 450 1120 443 1200 438.7C1280 434.3 1360 432.7 1440 433.7C1520 434.7 1600 438.3 1680 443.5C1760 448.7 1840 455.3 1880 458.7L1920 462L1920 1081L1880 1081C1840 1081 1760 1081 1680 1081C1600 1081 1520 1081 1440 1081C1360 1081 1280 1081 1200 1081C1120 1081 1040 1081 960 1081C880 1081 800 1081 720 1081C640 1081 560 1081 480 1081C400 1081 320 1081 240 1081C160 1081 80 1081 40 1081L0 1081Z" fill="#21242b"></path><path d="M0 483L40 499.7C80 516.3 160 549.7 240 553.2C320 556.7 400 530.3 480 521.8C560 513.3 640 522.7 720 525.2C800 527.7 880 523.3 960 515.5C1040 507.7 1120 496.3 1200 491.7C1280 487 1360 489 1440 494.2C1520 499.3 1600 507.7 1680 506C1760 504.3 1840 492.7 1880 486.8L1920 481L1920 1081L1880 1081C1840 1081 1760 1081 1680 1081C1600 1081 1520 1081 1440 1081C1360 1081 1280 1081 1200 1081C1120 1081 1040 1081 960 1081C880 1081 800 1081 720 1081C640 1081 560 1081 480 1081C400 1081 320 1081 240 1081C160 1081 80 1081 40 1081L0 1081Z" fill="#23262e"></path><path d="M0 657L40 650.2C80 643.3 160 629.7 240 627C320 624.3 400 632.7 480 628.7C560 624.7 640 608.3 720 616.7C800 625 880 658 960 676.7C1040 695.3 1120 699.7 1200 683C1280 666.3 1360 628.7 1440 621.3C1520 614 1600 637 1680 656.8C1760 676.7 1840 693.3 1880 701.7L1920 710L1920 1081L1880 1081C1840 1081 1760 1081 1680 1081C1600 1081 1520 1081 1440 1081C1360 1081 1280 1081 1200 1081C1120 1081 1040 1081 960 1081C880 1081 800 1081 720 1081C640 1081 560 1081 480 1081C400 1081 320 1081 240 1081C160 1081 80 1081 40 1081L0 1081Z" fill="#252830"></path><path d="M0 725L40 738.5C80 752 160 779 240 777.5C320 776 400 746 480 732.3C560 718.7 640 721.3 720 722C800 722.7 880 721.3 960 733.2C1040 745 1120 770 1200 778.8C1280 787.7 1360 780.3 1440 780.7C1520 781 1600 789 1680 789.7C1760 790.3 1840 783.7 1880 780.3L1920 777L1920 1081L1880 1081C1840 1081 1760 1081 1680 1081C1600 1081 1520 1081 1440 1081C1360 1081 1280 1081 1200 1081C1120 1081 1040 1081 960 1081C880 1081 800 1081 720 1081C640 1081 560 1081 480 1081C400 1081 320 1081 240 1081C160 1081 80 1081 40 1081L0 1081Z" fill="#272a33"></path><path d="M0 897L40 888C80 879 160 861 240 860.3C320 859.7 400 876.3 480 884.3C560 892.3 640 891.7 720 895.8C800 900 880 909 960 902.8C1040 896.7 1120 875.3 1200 856.2C1280 837 1360 820 1440 831.8C1520 843.7 1600 884.3 1680 892.2C1760 900 1840 875 1880 862.5L1920 850L1920 1081L1880 1081C1840 1081 1760 1081 1680 1081C1600 1081 1520 1081 1440 1081C1360 1081 1280 1081 1200 1081C1120 1081 1040 1081 960 1081C880 1081 800 1081 720 1081C640 1081 560 1081 480 1081C400 1081 320 1081 240 1081C160 1081 80 1081 40 1081L0 1081Z" fill="#292d35"></path><path d="M0 920L40 929.3C80 938.7 160 957.3 240 972.5C320 987.7 400 999.3 480 1005.3C560 1011.3 640 1011.7 720 1015.5C800 1019.3 880 1026.7 960 1011.8C1040 997 1120 960 1200 945.3C1280 930.7 1360 938.3 1440 939C1520 939.7 1600 933.3 1680 947.2C1760 961 1840 995 1880 1012L1920 1029L1920 1081L1880 1081C1840 1081 1760 1081 1680 1081C1600 1081 1520 1081 1440 1081C1360 1081 1280 1081 1200 1081C1120 1081 1040 1081 960 1081C880 1081 800 1081 720 1081C640 1081 560 1081 480 1081C400 1081 320 1081 240 1081C160 1081 80 1081 40 1081L0 1081Z" fill="#2b2f38"></path></svg>