<svg id="visual" viewBox="0 0 5120 1440" width="5120" height="1440" xmlns="http://www.w3.org/2000/svg" xmlns:xlink="http://www.w3.org/1999/xlink" version="1.1"><rect x="0" y="0" width="5120" height="1440" fill="#14161B"></rect><path d="M0 114L106.7 119.2C213.3 124.3 426.7 134.7 640 136.8C853.3 139 1066.7 133 1280 132.5C1493.3 132 1706.7 137 1920 137.2C2133.3 137.3 2346.7 132.7 2560 138.8C2773.3 145 2986.7 162 3200 151.3C3413.3 140.7 3626.7 102.3 3840 99.2C4053.3 96 4266.7 128 4480 155.2C4693.3 182.3 4906.7 204.7 5013.3 215.8L5120 227L5120 1441L5013.3 1441C4906.7 1441 4693.3 1441 4480 1441C4266.7 1441 4053.3 1441 3840 1441C3626.7 1441 3413.3 1441 3200 1441C2986.7 1441 2773.3 1441 2560 1441C2346.7 1441 2133.3 1441 1920 1441C1706.7 1441 1493.3 1441 1280 1441C1066.7 1441 853.3 1441 640 1441C426.7 1441 213.3 1441 106.7 1441L0 1441Z" fill="#1b1d24"></path><path d="M0 277L106.7 265.3C213.3 253.7 426.7 230.3 640 244.8C853.3 259.3 1066.7 311.7 1280 326.7C1493.3 341.7 1706.7 319.3 1920 294.7C2133.3 270 2346.7 243 2560 233.7C2773.3 224.3 2986.7 232.7 3200 244.2C3413.3 255.7 3626.7 270.3 3840 282.3C4053.3 294.3 4266.7 303.7 4480 307.8C4693.3 312 4906.7 311 5013.3 310.5L5120 310L5120 1441L5013.3 1441C4906.7 1441 4693.3 1441 4480 1441C4266.7 1441 4053.3 1441 3840 1441C3626.7 1441 3413.3 1441 3200 1441C2986.7 1441 2773.3 1441 2560 1441C2346.7 1441 2133.3 1441 1920 1441C1706.7 1441 1493.3 1441 1280 1441C1066.7 1441 853.3 1441 640 1441C426.7 1441 213.3 1441 106.7 1441L0 1441Z" fill="#1d1f26"></path><path d="M0 392L106.7 398.8C213.3 405.7 426.7 419.3 640 438.2C853.3 457 1066.7 481 1280 475.7C1493.3 470.3 1706.7 435.7 1920 413.7C2133.3 391.7 2346.7 382.3 2560 396.7C2773.3 411 2986.7 449 3200 447.2C3413.3 445.3 3626.7 403.7 3840 389C4053.3 374.3 4266.7 386.7 4480 400.5C4693.3 414.3 4906.7 429.7 5013.3 437.3L5120 445L5120 1441L5013.3 1441C4906.7 1441 4693.3 1441 4480 1441C4266.7 1441 4053.3 1441 3840 1441C3626.7 1441 3413.3 1441 3200 1441C2986.7 1441 2773.3 1441 2560 1441C2346.7 1441 2133.3 1441 1920 1441C1706.7 1441 1493.3 1441 1280 1441C1066.7 1441 853.3 1441 640 1441C426.7 1441 213.3 1441 106.7 1441L0 1441Z" fill="#1f2129"></path><path d="M0 511L106.7 525.8C213.3 540.7 426.7 570.3 640 581C853.3 591.7 1066.7 583.3 1280 567.2C1493.3 551 1706.7 527 1920 532.7C2133.3 538.3 2346.7 573.7 2560 586.7C2773.3 599.7 2986.7 590.3 3200 584.5C3413.3 578.7 3626.7 576.3 3840 577.8C4053.3 579.3 4266.7 584.7 4480 591.7C4693.3 598.7 4906.7 607.3 5013.3 611.7L5120 616L5120 1441L5013.3 1441C4906.7 1441 4693.3 1441 4480 1441C4266.7 1441 4053.3 1441 3840 1441C3626.7 1441 3413.3 1441 3200 1441C2986.7 1441 2773.3 1441 2560 1441C2346.7 1441 2133.3 1441 1920 1441C1706.7 1441 1493.3 1441 1280 1441C1066.7 1441 853.3 1441 640 1441C426.7 1441 213.3 1441 106.7 1441L0 1441Z" fill="#21242b"></path><path d="M0 644L106.7 666.3C213.3 688.7 426.7 733.3 640 738.2C853.3 743 1066.7 708 1280 696.5C1493.3 685 1706.7 697 1920 700.2C2133.3 703.3 2346.7 697.7 2560 687.5C2773.3 677.3 2986.7 662.7 3200 656.7C3413.3 650.7 3626.7 653.3 3840 660C4053.3 666.7 4266.7 677.3 4480 674.8C4693.3 672.3 4906.7 656.7 5013.3 648.8L5120 641L5120 1441L5013.3 1441C4906.7 1441 4693.3 1441 4480 1441C4266.7 1441 4053.3 1441 3840 1441C3626.7 1441 3413.3 1441 3200 1441C2986.7 1441 2773.3 1441 2560 1441C2346.7 1441 2133.3 1441 1920 1441C1706.7 1441 1493.3 1441 1280 1441C1066.7 1441 853.3 1441 640 1441C426.7 1441 213.3 1441 106.7 1441L0 1441Z" fill="#23262e"></path><path d="M0 876L106.7 866.8C213.3 857.7 426.7 839.3 640 835.8C853.3 832.3 1066.7 843.7 1280 838.5C1493.3 833.3 1706.7 811.7 1920 822.7C2133.3 833.7 2346.7 877.3 2560 902.2C2773.3 927 2986.7 933 3200 910.8C3413.3 888.7 3626.7 838.3 3840 828.5C4053.3 818.7 4266.7 849.3 4480 875.8C4693.3 902.3 4906.7 924.7 5013.3 935.8L5120 947L5120 1441L5013.3 1441C4906.7 1441 4693.3 1441 4480 1441C4266.7 1441 4053.3 1441 3840 1441C3626.7 1441 3413.3 1441 3200 1441C2986.7 1441 2773.3 1441 2560 1441C2346.7 1441 2133.3 1441 1920 1441C1706.7 1441 1493.3 1441 1280 1441C1066.7 1441 853.3 1441 640 1441C426.7 1441 213.3 1441 106.7 1441L0 1441Z" fill="#252830"></path><path d="M0 967L106.7 985C213.3 1003 426.7 1039 640 1037C853.3 1035 1066.7 995 1280 976.8C1493.3 958.7 1706.7 962.3 1920 963.3C2133.3 964.3 2346.7 962.7 2560 978.3C2773.3 994 2986.7 1027 3200 1038.8C3413.3 1050.7 3626.7 1041.3 3840 1041.8C4053.3 1042.3 4266.7 1052.7 4480 1053.5C4693.3 1054.3 4906.7 1045.7 5013.3 1041.3L5120 1037L5120 1441L5013.3 1441C4906.7 1441 4693.3 1441 4480 1441C4266.7 1441 4053.3 1441 3840 1441C3626.7 1441 3413.3 1441 3200 1441C2986.7 1441 2773.3 1441 2560 1441C2346.7 1441 2133.3 1441 1920 1441C1706.7 1441 1493.3 1441 1280 1441C1066.7 1441 853.3 1441 640 1441C426.7 1441 213.3 1441 106.7 1441L0 1441Z" fill="#272a33"></path><path d="M0 1197L106.7 1185C213.3 1173 426.7 1149 640 1147.8C853.3 1146.7 1066.7 1168.3 1280 1178.8C1493.3 1189.3 1706.7 1188.7 1920 1194.3C2133.3 1200 2346.7 1212 2560 1203.8C2773.3 1195.7 2986.7 1167.3 3200 1141.8C3413.3 1116.3 3626.7 1093.7 3840 1109.5C4053.3 1125.3 4266.7 1179.7 4480 1190.2C4693.3 1200.7 4906.7 1167.3 5013.3 1150.7L5120 1134L5120 1441L5013.3 1441C4906.7 1441 4693.3 1441 4480 1441C4266.7 1441 4053.3 1441 3840 1441C3626.7 1441 3413.3 1441 3200 1441C2986.7 1441 2773.3 1441 2560 1441C2346.7 1441 2133.3 1441 1920 1441C1706.7 1441 1493.3 1441 1280 1441C1066.7 1441 853.3 1441 640 1441C426.7 1441 213.3 1441 106.7 1441L0 1441Z" fill="#292d35"></path><path d="M0 1228L106.7 1240.2C213.3 1252.3 426.7 1276.7 640 1296.8C853.3 1317 1066.7 1333 1280 1341.2C1493.3 1349.3 1706.7 1349.7 1920 1354.7C2133.3 1359.7 2346.7 1369.3 2560 1349.5C2773.3 1329.7 2986.7 1280.3 3200 1260.8C3413.3 1241.3 3626.7 1251.7 3840 1252.7C4053.3 1253.7 4266.7 1245.3 4480 1263.7C4693.3 1282 4906.7 1327 5013.3 1349.5L5120 1372L5120 1441L5013.3 1441C4906.7 1441 4693.3 1441 4480 1441C4266.7 1441 4053.3 1441 3840 1441C3626.7 1441 3413.3 1441 3200 1441C2986.7 1441 2773.3 1441 2560 1441C2346.7 1441 2133.3 1441 1920 1441C1706.7 1441 1493.3 1441 1280 1441C1066.7 1441 853.3 1441 640 1441C426.7 1441 213.3 1441 106.7 1441L0 1441Z" fill="#2b2f38"></path></svg>