<svg id="visual" viewBox="0 0 5120 1440" width="5120" height="1440" xmlns="http://www.w3.org/2000/svg" xmlns:xlink="http://www.w3.org/1999/xlink" version="1.1"><rect width="5120" height="1440" fill="#14161B"></rect><g><g transform="translate(1882 884)"><path d="M0 -328.1L284.1 -164L284.1 164L0 328.1L-284.1 164L-284.1 -164Z" fill="#22252C"></path></g><g transform="translate(4456 769)"><path d="M0 -221L191.4 -110.5L191.4 110.5L0 221L-191.4 110.5L-191.4 -110.5Z" fill="#22252C"></path></g><g transform="translate(1065 769)"><path d="M0 -124L107.4 -62L107.4 62L0 124L-107.4 62L-107.4 -62Z" fill="#22252C"></path></g><g transform="translate(3031 642)"><path d="M0 -267L231.2 -133.5L231.2 133.5L0 267L-231.2 133.5L-231.2 -133.5Z" fill="#22252C"></path></g><g transform="translate(331 437)"><path d="M0 -68L58.9 -34L58.9 34L0 68L-58.9 34L-58.9 -34Z" fill="#22252C"></path></g><g transform="translate(413 1110)"><path d="M0 -209L181 -104.5L181 104.5L0 209L-181 104.5L-181 -104.5Z" fill="#22252C"></path></g><g transform="translate(3767 1111)"><path d="M0 -303L262.4 -151.5L262.4 151.5L0 303L-262.4 151.5L-262.4 -151.5Z" fill="#22252C"></path></g><g transform="translate(2391 388)"><path d="M0 -163L141.2 -81.5L141.2 81.5L0 163L-141.2 81.5L-141.2 -81.5Z" fill="#22252C"></path></g><g transform="translate(3929 354)"><path d="M0 -77L66.7 -38.5L66.7 38.5L0 77L-66.7 38.5L-66.7 -38.5Z" fill="#22252C"></path></g></g></svg>