<svg id="visual" viewBox="0 0 1920 1080" width="1920" height="1080" xmlns="http://www.w3.org/2000/svg" xmlns:xlink="http://www.w3.org/1999/xlink" version="1.1"><path d="M1861 1080L1842 1080L1842 1033L1823 1033L1823 986L1765 986L1765 939L1861 939L1861 892L1900 892L1900 845L1842 845L1842 798L1842 798L1842 751L1881 751L1881 704L1765 704L1765 657L1823 657L1823 610L1804 610L1804 563L1881 563L1881 517L1785 517L1785 470L1900 470L1900 423L1900 423L1900 376L1785 376L1785 329L1785 329L1785 282L1785 282L1785 235L1842 235L1842 188L1881 188L1881 141L1900 141L1900 94L1881 94L1881 47L1881 47L1881 0L1920 0L1920 47L1920 47L1920 94L1920 94L1920 141L1920 141L1920 188L1920 188L1920 235L1920 235L1920 282L1920 282L1920 329L1920 329L1920 376L1920 376L1920 423L1920 423L1920 470L1920 470L1920 517L1920 517L1920 563L1920 563L1920 610L1920 610L1920 657L1920 657L1920 704L1920 704L1920 751L1920 751L1920 798L1920 798L1920 845L1920 845L1920 892L1920 892L1920 939L1920 939L1920 986L1920 986L1920 1033L1920 1033L1920 1080L1920 1080Z" fill="#14161b"></path><path d="M1785 1080L1689 1080L1689 1033L1765 1033L1765 986L1746 986L1746 939L1823 939L1823 892L1746 892L1746 845L1765 845L1765 798L1746 798L1746 751L1785 751L1785 704L1746 704L1746 657L1785 657L1785 610L1650 610L1650 563L1823 563L1823 517L1765 517L1765 470L1823 470L1823 423L1785 423L1785 376L1650 376L1650 329L1746 329L1746 282L1612 282L1612 235L1823 235L1823 188L1765 188L1765 141L1823 141L1823 94L1823 94L1823 47L1804 47L1804 0L1882 0L1882 47L1882 47L1882 94L1901 94L1901 141L1882 141L1882 188L1843 188L1843 235L1786 235L1786 282L1786 282L1786 329L1786 329L1786 376L1901 376L1901 423L1901 423L1901 470L1786 470L1786 517L1882 517L1882 563L1805 563L1805 610L1824 610L1824 657L1766 657L1766 704L1882 704L1882 751L1843 751L1843 798L1843 798L1843 845L1901 845L1901 892L1862 892L1862 939L1766 939L1766 986L1824 986L1824 1033L1843 1033L1843 1080L1862 1080Z" fill="#171a1f"></path><path d="M1669 1080L1593 1080L1593 1033L1573 1033L1573 986L1554 986L1554 939L1708 939L1708 892L1497 892L1497 845L1650 845L1650 798L1516 798L1516 751L1612 751L1612 704L1631 704L1631 657L1650 657L1650 610L1554 610L1554 563L1746 563L1746 517L1746 517L1746 470L1765 470L1765 423L1650 423L1650 376L1477 376L1477 329L1573 329L1573 282L1343 282L1343 235L1593 235L1593 188L1497 188L1497 141L1785 141L1785 94L1708 94L1708 47L1631 47L1631 0L1805 0L1805 47L1824 47L1824 94L1824 94L1824 141L1766 141L1766 188L1824 188L1824 235L1613 235L1613 282L1747 282L1747 329L1651 329L1651 376L1786 376L1786 423L1824 423L1824 470L1766 470L1766 517L1824 517L1824 563L1651 563L1651 610L1786 610L1786 657L1747 657L1747 704L1786 704L1786 751L1747 751L1747 798L1766 798L1766 845L1747 845L1747 892L1824 892L1824 939L1747 939L1747 986L1766 986L1766 1033L1690 1033L1690 1080L1786 1080Z" fill="#1b1d23"></path><path d="M1228 1080L1151 1080L1151 1033L1113 1033L1113 986L1113 986L1113 939L1266 939L1266 892L901 892L901 845L1381 845L1381 798L1228 798L1228 751L1401 751L1401 704L1458 704L1458 657L1189 657L1189 610L1113 610L1113 563L1017 563L1017 517L1055 517L1055 470L1554 470L1554 423L1189 423L1189 376L1266 376L1266 329L1401 329L1401 282L882 282L882 235L1305 235L1305 188L1055 188L1055 141L1458 141L1458 94L863 94L863 47L1228 47L1228 0L1632 0L1632 47L1709 47L1709 94L1786 94L1786 141L1498 141L1498 188L1594 188L1594 235L1344 235L1344 282L1574 282L1574 329L1478 329L1478 376L1651 376L1651 423L1766 423L1766 470L1747 470L1747 517L1747 517L1747 563L1555 563L1555 610L1651 610L1651 657L1632 657L1632 704L1613 704L1613 751L1517 751L1517 798L1651 798L1651 845L1498 845L1498 892L1709 892L1709 939L1555 939L1555 986L1574 986L1574 1033L1594 1033L1594 1080L1670 1080Z" fill="#1e2127"></path><path d="M1170 1080L652 1080L652 1033L997 1033L997 986L633 986L633 939L882 939L882 892L709 892L709 845L1170 845L1170 798L805 798L805 751L556 751L556 704L1055 704L1055 657L1055 657L1055 610L1074 610L1074 563L748 563L748 517L959 517L959 470L1132 470L1132 423L786 423L786 376L671 376L671 329L748 329L748 282L844 282L844 235L652 235L652 188L844 188L844 141L402 141L402 94L517 94L517 47L978 47L978 0L1229 0L1229 47L864 47L864 94L1459 94L1459 141L1056 141L1056 188L1306 188L1306 235L883 235L883 282L1402 282L1402 329L1267 329L1267 376L1190 376L1190 423L1555 423L1555 470L1056 470L1056 517L1018 517L1018 563L1114 563L1114 610L1190 610L1190 657L1459 657L1459 704L1402 704L1402 751L1229 751L1229 798L1382 798L1382 845L902 845L902 892L1267 892L1267 939L1114 939L1114 986L1114 986L1114 1033L1152 1033L1152 1080L1229 1080Z" fill="#22252c"></path><path d="M1055 1080L594 1080L594 1033L844 1033L844 986L498 986L498 939L825 939L825 892L594 892L594 845L1017 845L1017 798L786 798L786 751L421 751L421 704L863 704L863 657L1017 657L1017 610L978 610L978 563L671 563L671 517L767 517L767 470L1017 470L1017 423L709 423L709 376L498 376L498 329L729 329L729 282L805 282L805 235L441 235L441 188L805 188L805 141L383 141L383 94L441 94L441 47L844 47L844 0L979 0L979 47L518 47L518 94L403 94L403 141L845 141L845 188L653 188L653 235L845 235L845 282L749 282L749 329L672 329L672 376L787 376L787 423L1133 423L1133 470L960 470L960 517L749 517L749 563L1075 563L1075 610L1056 610L1056 657L1056 657L1056 704L557 704L557 751L806 751L806 798L1171 798L1171 845L710 845L710 892L883 892L883 939L634 939L634 986L998 986L998 1033L653 1033L653 1080L1171 1080Z" fill="#22252c"></path><path d="M959 1080L556 1080L556 1033L825 1033L825 986L402 986L402 939L729 939L729 892L556 892L556 845L978 845L978 798L690 798L690 751L287 751L287 704L825 704L825 657L959 657L959 610L863 610L863 563L537 563L537 517L613 517L613 470L978 470L978 423L690 423L690 376L383 376L383 329L594 329L594 282L805 282L805 235L345 235L345 188L690 188L690 141L249 141L249 94L402 94L402 47L729 47L729 0L845 0L845 47L442 47L442 94L384 94L384 141L806 141L806 188L442 188L442 235L806 235L806 282L730 282L730 329L499 329L499 376L710 376L710 423L1018 423L1018 470L768 470L768 517L672 517L672 563L979 563L979 610L1018 610L1018 657L864 657L864 704L422 704L422 751L787 751L787 798L1018 798L1018 845L595 845L595 892L826 892L826 939L499 939L499 986L845 986L845 1033L595 1033L595 1080L1056 1080Z" fill="#22252c"></path><path d="M729 1080L421 1080L421 1033L594 1033L594 986L210 986L210 939L690 939L690 892L249 892L249 845L690 845L690 798L421 798L421 751L191 751L191 704L575 704L575 657L671 657L671 610L594 610L594 563L383 563L383 517L575 517L575 470L556 470L556 423L652 423L652 376L153 376L153 329L441 329L441 282L479 282L479 235L153 235L153 188L460 188L460 141L172 141L172 94L133 94L133 47L575 47L575 0L730 0L730 47L403 47L403 94L250 94L250 141L691 141L691 188L346 188L346 235L806 235L806 282L595 282L595 329L384 329L384 376L691 376L691 423L979 423L979 470L614 470L614 517L538 517L538 563L864 563L864 610L960 610L960 657L826 657L826 704L288 704L288 751L691 751L691 798L979 798L979 845L557 845L557 892L730 892L730 939L403 939L403 986L826 986L826 1033L557 1033L557 1080L960 1080Z" fill="#1e2127"></path><path d="M498 1080L325 1080L325 1033L402 1033L402 986L153 986L153 939L441 939L441 892L153 892L153 845L498 845L498 798L210 798L210 751L76 751L76 704L460 704L460 657L517 657L517 610L498 610L498 563L268 563L268 517L383 517L383 470L517 470L517 423L441 423L441 376L133 376L133 329L210 329L210 282L421 282L421 235L133 235L133 188L402 188L402 141L133 141L133 94L114 94L114 47L479 47L479 0L576 0L576 47L134 47L134 94L173 94L173 141L461 141L461 188L154 188L154 235L480 235L480 282L442 282L442 329L154 329L154 376L653 376L653 423L557 423L557 470L576 470L576 517L384 517L384 563L595 563L595 610L672 610L672 657L576 657L576 704L192 704L192 751L422 751L422 798L691 798L691 845L250 845L250 892L691 892L691 939L211 939L211 986L595 986L595 1033L422 1033L422 1080L730 1080Z" fill="#1b1d23"></path><path d="M345 1080L172 1080L172 1033L383 1033L383 986L76 986L76 939L383 939L383 892L37 892L37 845L345 845L345 798L114 798L114 751L37 751L37 704L268 704L268 657L345 657L345 610L345 610L345 563L76 563L76 517L229 517L229 470L460 470L460 423L287 423L287 376L76 376L76 329L76 329L76 282L325 282L325 235L76 235L76 188L229 188L229 141L95 141L95 94L57 94L57 47L402 47L402 0L480 0L480 47L115 47L115 94L134 94L134 141L403 141L403 188L134 188L134 235L422 235L422 282L211 282L211 329L134 329L134 376L442 376L442 423L518 423L518 470L384 470L384 517L269 517L269 563L499 563L499 610L518 610L518 657L461 657L461 704L77 704L77 751L211 751L211 798L499 798L499 845L154 845L154 892L442 892L442 939L154 939L154 986L403 986L403 1033L326 1033L326 1080L499 1080Z" fill="#171a1f"></path><path d="M0 1080L0 1080L0 1033L0 1033L0 986L0 986L0 939L0 939L0 892L0 892L0 845L0 845L0 798L0 798L0 751L0 751L0 704L0 704L0 657L0 657L0 610L0 610L0 563L0 563L0 517L0 517L0 470L0 470L0 423L0 423L0 376L0 376L0 329L0 329L0 282L0 282L0 235L0 235L0 188L0 188L0 141L0 141L0 94L0 94L0 47L0 47L0 0L403 0L403 47L58 47L58 94L96 94L96 141L230 141L230 188L77 188L77 235L326 235L326 282L77 282L77 329L77 329L77 376L288 376L288 423L461 423L461 470L230 470L230 517L77 517L77 563L346 563L346 610L346 610L346 657L269 657L269 704L38 704L38 751L115 751L115 798L346 798L346 845L38 845L38 892L384 892L384 939L77 939L77 986L384 986L384 1033L173 1033L173 1080L346 1080Z" fill="#14161b"></path></svg>