<svg id="visual" viewBox="0 0 5120 1440" width="5120" height="1440" xmlns="http://www.w3.org/2000/svg" xmlns:xlink="http://www.w3.org/1999/xlink" version="1.1"><path d="M5017 1440L4863 1440L4863 1377L4812 1377L4812 1315L4914 1315L4914 1252L4965 1252L4965 1190L4761 1190L4761 1127L4914 1127L4914 1064L4761 1064L4761 1002L4965 1002L4965 939L4812 939L4812 877L4863 877L4863 814L4863 814L4863 751L4812 751L4812 689L4812 689L4812 626L4863 626L4863 563L4863 563L4863 501L4812 501L4812 438L4863 438L4863 376L4914 376L4914 313L5017 313L5017 250L4914 250L4914 188L4761 188L4761 125L4812 125L4812 63L5017 63L5017 0L5120 0L5120 63L5120 63L5120 125L5120 125L5120 188L5120 188L5120 250L5120 250L5120 313L5120 313L5120 376L5120 376L5120 438L5120 438L5120 501L5120 501L5120 563L5120 563L5120 626L5120 626L5120 689L5120 689L5120 751L5120 751L5120 814L5120 814L5120 877L5120 877L5120 939L5120 939L5120 1002L5120 1002L5120 1064L5120 1064L5120 1127L5120 1127L5120 1190L5120 1190L5120 1252L5120 1252L5120 1315L5120 1315L5120 1377L5120 1377L5120 1440L5120 1440Z" fill="#14161b"></path><path d="M3993 1440L4300 1440L4300 1377L4453 1377L4453 1315L3941 1315L3941 1252L3890 1252L3890 1190L3993 1190L3993 1127L3737 1127L3737 1064L4044 1064L4044 1002L4453 1002L4453 939L4197 939L4197 877L4453 877L4453 814L4095 814L4095 751L4146 751L4146 689L4453 689L4453 626L4556 626L4556 563L4197 563L4197 501L4197 501L4197 438L4095 438L4095 376L4300 376L4300 313L4300 313L4300 250L4146 250L4146 188L3993 188L3993 125L4300 125L4300 63L4249 63L4249 0L5018 0L5018 63L4813 63L4813 125L4762 125L4762 188L4915 188L4915 250L5018 250L5018 313L4915 313L4915 376L4864 376L4864 438L4813 438L4813 501L4864 501L4864 563L4864 563L4864 626L4813 626L4813 689L4813 689L4813 751L4864 751L4864 814L4864 814L4864 877L4813 877L4813 939L4966 939L4966 1002L4762 1002L4762 1064L4915 1064L4915 1127L4762 1127L4762 1190L4966 1190L4966 1252L4915 1252L4915 1315L4813 1315L4813 1377L4864 1377L4864 1440L5018 1440Z" fill="#181a1f"></path><path d="M3532 1440L3941 1440L3941 1377L4197 1377L4197 1315L3583 1315L3583 1252L3634 1252L3634 1190L3532 1190L3532 1127L3481 1127L3481 1064L3634 1064L3634 1002L4044 1002L4044 939L3788 939L3788 877L4197 877L4197 814L3634 814L3634 751L3993 751L3993 689L4197 689L4197 626L4300 626L4300 563L3941 563L3941 501L3788 501L3788 438L3685 438L3685 376L4044 376L4044 313L3737 313L3737 250L3634 250L3634 188L3685 188L3685 125L3737 125L3737 63L3993 63L3993 0L4250 0L4250 63L4301 63L4301 125L3994 125L3994 188L4147 188L4147 250L4301 250L4301 313L4301 313L4301 376L4096 376L4096 438L4198 438L4198 501L4198 501L4198 563L4557 563L4557 626L4454 626L4454 689L4147 689L4147 751L4096 751L4096 814L4454 814L4454 877L4198 877L4198 939L4454 939L4454 1002L4045 1002L4045 1064L3738 1064L3738 1127L3994 1127L3994 1190L3891 1190L3891 1252L3942 1252L3942 1315L4454 1315L4454 1377L4301 1377L4301 1440L3994 1440Z" fill="#1c1e24"></path><path d="M2303 1440L3122 1440L3122 1377L2764 1377L2764 1315L2559 1315L2559 1252L2354 1252L2354 1190L2457 1190L2457 1127L2405 1127L2405 1064L2815 1064L2815 1002L2405 1002L2405 939L2969 939L2969 877L2661 877L2661 814L2866 814L2866 751L2559 751L2559 689L2866 689L2866 626L3020 626L3020 563L2354 563L2354 501L2610 501L2610 438L1996 438L1996 376L3327 376L3327 313L2969 313L2969 250L2405 250L2405 188L2149 188L2149 125L2917 125L2917 63L2764 63L2764 0L3994 0L3994 63L3738 63L3738 125L3686 125L3686 188L3635 188L3635 250L3738 250L3738 313L4045 313L4045 376L3686 376L3686 438L3789 438L3789 501L3942 501L3942 563L4301 563L4301 626L4198 626L4198 689L3994 689L3994 751L3635 751L3635 814L4198 814L4198 877L3789 877L3789 939L4045 939L4045 1002L3635 1002L3635 1064L3482 1064L3482 1127L3533 1127L3533 1190L3635 1190L3635 1252L3584 1252L3584 1315L4198 1315L4198 1377L3942 1377L3942 1440L3533 1440Z" fill="#202229"></path><path d="M2149 1440L3020 1440L3020 1377L2559 1377L2559 1315L2354 1315L2354 1252L2201 1252L2201 1190L2252 1190L2252 1127L2201 1127L2201 1064L2661 1064L2661 1002L2098 1002L2098 939L2764 939L2764 877L2457 877L2457 814L2661 814L2661 751L2405 751L2405 689L2559 689L2559 626L2815 626L2815 563L2098 563L2098 501L2252 501L2252 438L1893 438L1893 376L3122 376L3122 313L2713 313L2713 250L2149 250L2149 188L1996 188L1996 125L2661 125L2661 63L2559 63L2559 0L2765 0L2765 63L2918 63L2918 125L2150 125L2150 188L2406 188L2406 250L2970 250L2970 313L3328 313L3328 376L1997 376L1997 438L2611 438L2611 501L2355 501L2355 563L3021 563L3021 626L2867 626L2867 689L2560 689L2560 751L2867 751L2867 814L2662 814L2662 877L2970 877L2970 939L2406 939L2406 1002L2816 1002L2816 1064L2406 1064L2406 1127L2458 1127L2458 1190L2355 1190L2355 1252L2560 1252L2560 1315L2765 1315L2765 1377L3123 1377L3123 1440L2304 1440Z" fill="#22252c"></path><path d="M1689 1440L2764 1440L2764 1377L2252 1377L2252 1315L1945 1315L1945 1252L2047 1252L2047 1190L2098 1190L2098 1127L2047 1127L2047 1064L2201 1064L2201 1002L1945 1002L1945 939L2354 939L2354 877L2252 877L2252 814L2252 814L2252 751L2098 751L2098 689L2405 689L2405 626L2610 626L2610 563L1689 563L1689 501L2047 501L2047 438L1689 438L1689 376L2866 376L2866 313L2405 313L2405 250L1996 250L1996 188L1740 188L1740 125L2457 125L2457 63L2303 63L2303 0L2560 0L2560 63L2662 63L2662 125L1997 125L1997 188L2150 188L2150 250L2714 250L2714 313L3123 313L3123 376L1894 376L1894 438L2253 438L2253 501L2099 501L2099 563L2816 563L2816 626L2560 626L2560 689L2406 689L2406 751L2662 751L2662 814L2458 814L2458 877L2765 877L2765 939L2099 939L2099 1002L2662 1002L2662 1064L2202 1064L2202 1127L2253 1127L2253 1190L2202 1190L2202 1252L2355 1252L2355 1315L2560 1315L2560 1377L3021 1377L3021 1440L2150 1440Z" fill="#22252c"></path><path d="M1228 1440L2149 1440L2149 1377L1740 1377L1740 1315L1279 1315L1279 1252L1535 1252L1535 1190L1330 1190L1330 1127L1689 1127L1689 1064L1842 1064L1842 1002L1228 1002L1228 939L1637 939L1637 877L1893 877L1893 814L1996 814L1996 751L1484 751L1484 689L1689 689L1689 626L1791 626L1791 563L1023 563L1023 501L1689 501L1689 438L1330 438L1330 376L2149 376L2149 313L2149 313L2149 250L1689 250L1689 188L1484 188L1484 125L2047 125L2047 63L1740 63L1740 0L2304 0L2304 63L2458 63L2458 125L1741 125L1741 188L1997 188L1997 250L2406 250L2406 313L2867 313L2867 376L1690 376L1690 438L2048 438L2048 501L1690 501L1690 563L2611 563L2611 626L2406 626L2406 689L2099 689L2099 751L2253 751L2253 814L2253 814L2253 877L2355 877L2355 939L1946 939L1946 1002L2202 1002L2202 1064L2048 1064L2048 1127L2099 1127L2099 1190L2048 1190L2048 1252L1946 1252L1946 1315L2253 1315L2253 1377L2765 1377L2765 1440L1690 1440Z" fill="#202229"></path><path d="M1023 1440L1484 1440L1484 1377L1228 1377L1228 1315L1074 1315L1074 1252L1177 1252L1177 1190L869 1190L869 1127L1279 1127L1279 1064L1484 1064L1484 1002L1023 1002L1023 939L1381 939L1381 877L1330 877L1330 814L1637 814L1637 751L921 751L921 689L1381 689L1381 626L1586 626L1586 563L767 563L767 501L1125 501L1125 438L1023 438L1023 376L1945 376L1945 313L1791 313L1791 250L1228 250L1228 188L1177 188L1177 125L1689 125L1689 63L1074 63L1074 0L1741 0L1741 63L2048 63L2048 125L1485 125L1485 188L1690 188L1690 250L2150 250L2150 313L2150 313L2150 376L1331 376L1331 438L1690 438L1690 501L1024 501L1024 563L1792 563L1792 626L1690 626L1690 689L1485 689L1485 751L1997 751L1997 814L1894 814L1894 877L1638 877L1638 939L1229 939L1229 1002L1843 1002L1843 1064L1690 1064L1690 1127L1331 1127L1331 1190L1536 1190L1536 1252L1280 1252L1280 1315L1741 1315L1741 1377L2150 1377L2150 1440L1229 1440Z" fill="#1c1e24"></path><path d="M818 1440L1330 1440L1330 1377L869 1377L869 1315L767 1315L767 1252L869 1252L869 1190L665 1190L665 1127L1074 1127L1074 1064L1177 1064L1177 1002L665 1002L665 939L1074 939L1074 877L921 877L921 814L1381 814L1381 751L511 751L511 689L1177 689L1177 626L1177 626L1177 563L613 563L613 501L972 501L972 438L869 438L869 376L1535 376L1535 313L1535 313L1535 250L1074 250L1074 188L1023 188L1023 125L1535 125L1535 63L665 63L665 0L1075 0L1075 63L1690 63L1690 125L1178 125L1178 188L1229 188L1229 250L1792 250L1792 313L1946 313L1946 376L1024 376L1024 438L1126 438L1126 501L768 501L768 563L1587 563L1587 626L1382 626L1382 689L922 689L922 751L1638 751L1638 814L1331 814L1331 877L1382 877L1382 939L1024 939L1024 1002L1485 1002L1485 1064L1280 1064L1280 1127L870 1127L870 1190L1178 1190L1178 1252L1075 1252L1075 1315L1229 1315L1229 1377L1485 1377L1485 1440L1024 1440Z" fill="#181a1f"></path><path d="M0 1440L0 1440L0 1377L0 1377L0 1315L0 1315L0 1252L0 1252L0 1190L0 1190L0 1127L0 1127L0 1064L0 1064L0 1002L0 1002L0 939L0 939L0 877L0 877L0 814L0 814L0 751L0 751L0 689L0 689L0 626L0 626L0 563L0 563L0 501L0 501L0 438L0 438L0 376L0 376L0 313L0 313L0 250L0 250L0 188L0 188L0 125L0 125L0 63L0 63L0 0L666 0L666 63L1536 63L1536 125L1024 125L1024 188L1075 188L1075 250L1536 250L1536 313L1536 313L1536 376L870 376L870 438L973 438L973 501L614 501L614 563L1178 563L1178 626L1178 626L1178 689L512 689L512 751L1382 751L1382 814L922 814L922 877L1075 877L1075 939L666 939L666 1002L1178 1002L1178 1064L1075 1064L1075 1127L666 1127L666 1190L870 1190L870 1252L768 1252L768 1315L870 1315L870 1377L1331 1377L1331 1440L819 1440Z" fill="#14161b"></path></svg>